<svg height="109" viewBox="0 0 479 109" width="479" xmlns="http://www.w3.org/2000/svg" xmlns:xlink="http://www.w3.org/1999/xlink"><linearGradient id="a" gradientUnits="objectBoundingBox" x2="1" y1=".5" y2=".5"><stop offset="0" stop-color="#0ac189"/><stop offset="1" stop-color="#8dc1e7"/></linearGradient><clipPath id="b"><path d="m0 0h479v109h-479z"/></clipPath><g clip-path="url(#b)"><path d="m99 58h-99v-58h99v4h-4v4h4v-3.448 7.448h-28v34h28v4h-4v4h4zm-12-8v4h4v-4zm-8 0v4h4v-4zm-8 0v4h4v-4zm-8 0v4h4v-4zm-8 0v4h4v-4zm-8 0v4h4v-4zm-8 0v4h4v-4zm-8 0v4h4v-4zm-8 0v4h4v-4zm16-38v34h28v-34zm-32 0v34h28v-34zm80-8v4h4v-4zm-8 0v4h4v-4zm-8 0v4h4v-4zm-8 0v4h4v-4zm-8 0v4h4v-4zm-8 0v4h4v-4zm-8 0v4h4v-4zm-8 0v4h4v-4zm-8 0v4h4v-4z" fill="url(#a)" transform="translate(0 28)"/><text fill="#e1e1e1" font-family="OpenSans, Open Sans" font-size="80" letter-spacing=".08em" transform="translate(99 86)"><tspan x="0" y="0">Reeling</tspan><tspan fill="#0dc8f5" font-family="OpenSans-Semibold, Open Sans" font-weight="600" y="0">It</tspan></text></g></svg>